<svg width="280" height="87" viewBox="0 0 280 87" fill="none" xmlns="http://www.w3.org/2000/svg">
<g clip-path="url(#clip0_5105_29954)">
<path d="M69.0481 1.75098H17.328C8.76334 1.75098 1.82031 8.69401 1.82031 17.2587V68.9788C1.82031 77.5434 8.76334 84.4865 17.328 84.4865H69.0481C77.6128 84.4865 84.5558 77.5434 84.5558 68.9788V17.2587C84.5558 8.69401 77.6128 1.75098 69.0481 1.75098Z" fill="white"/>
<path d="M69.0485 3.47399C76.6634 3.47399 82.8331 9.6715 82.8331 17.2586V68.9787C82.8331 76.5936 76.6356 82.7633 69.0485 82.7633H17.3284C9.71354 82.7633 3.54381 76.5658 3.54381 68.9787V17.2586C3.54381 9.64371 9.74133 3.47399 17.3284 3.47399H69.0485ZM69.0485 0.027832H17.3284C7.79592 0.027832 0.0976562 7.75389 0.0976562 17.2586V68.9787C0.0976562 78.5112 7.82371 86.2095 17.3284 86.2095H69.0485C78.581 86.2095 86.2793 78.4834 86.2793 68.9787V17.2586C86.2793 7.7261 78.5532 0.027832 69.0485 0.027832Z" fill="#D5D5D5"/>
<path fill-rule="evenodd" clip-rule="evenodd" d="M45.093 16.9807V39.3807H41.3412V16.9807H33.8096V69.2566H41.3412V46.8566H45.093V69.2566H52.6245V16.9807H45.093ZM15.0781 16.9807V24.4566H18.83V69.2566H26.3337V24.4566H30.0856V16.9807H15.1059H15.0781ZM56.3208 69.2566V16.9807H71.3005V24.4566H63.7967V39.3807H69.4106V46.8566H63.7967V61.7807H71.3005V69.2566H56.3208Z" fill="url(#paint0_linear_5105_29954)"/>
<path d="M106.872 16.8701V43.689H100.98V16.8701H106.872Z" fill="black"/>
<path d="M115.127 24.2905V26.9862H115.238C115.905 25.8468 116.794 25.0408 117.878 24.5128C118.962 24.0125 120.046 23.7346 121.185 23.7346C122.325 23.7346 123.77 23.9292 124.687 24.3182C125.604 24.7073 126.327 25.2354 126.855 25.9302C127.383 26.6249 127.744 27.4587 127.967 28.4592C128.189 29.4597 128.272 30.5436 128.272 31.7386V43.689H122.936V32.7113C122.936 31.0994 122.686 29.9043 122.186 29.1262C121.686 28.348 120.796 27.9311 119.518 27.9311C118.24 27.9311 117.017 28.3758 116.35 29.2373C115.71 30.0989 115.377 31.5163 115.377 33.4895V43.6612H110.041V24.2349H115.127V24.2905Z" fill="black"/>
<path d="M135.331 38.8808C135.581 39.2977 135.886 39.6312 136.248 39.9091C136.609 40.187 137.054 40.3538 137.554 40.4927C138.054 40.6317 138.554 40.6873 139.082 40.6873C139.61 40.6873 139.861 40.6317 140.277 40.5483C140.694 40.4649 141.056 40.326 141.417 40.1314C141.75 39.9369 142.028 39.6868 142.251 39.3811C142.473 39.0754 142.584 38.6863 142.584 38.186C142.584 37.3801 142.056 36.7964 141 36.3796C139.944 35.9905 138.443 35.5736 136.553 35.1845C135.775 35.0178 135.025 34.7955 134.274 34.5731C133.524 34.323 132.885 34.0173 132.301 33.6282C131.718 33.2391 131.273 32.7389 130.912 32.1553C130.55 31.5716 130.384 30.8491 130.384 29.9875C130.384 28.7369 130.634 27.7086 131.106 26.9027C131.607 26.0967 132.246 25.4575 133.052 25.0128C133.858 24.5404 134.747 24.2347 135.747 24.0401C136.748 23.8456 137.776 23.7622 138.832 23.7622C139.888 23.7622 140.917 23.8734 141.889 24.0679C142.89 24.2625 143.751 24.596 144.53 25.0962C145.308 25.5687 145.947 26.2079 146.475 26.986C146.975 27.7642 147.309 28.7647 147.392 29.9597H142.306C142.223 28.9314 141.834 28.2366 141.139 27.8754C140.444 27.5141 139.61 27.3195 138.666 27.3195C137.721 27.3195 138.026 27.3195 137.693 27.3751C137.332 27.4029 137.026 27.4863 136.748 27.6252C136.47 27.7642 136.22 27.9309 136.025 28.1811C135.831 28.4312 135.72 28.7369 135.72 29.126C135.72 29.5151 135.886 29.9875 136.248 30.2932C136.609 30.5989 137.054 30.8491 137.609 31.0158C138.165 31.2103 138.805 31.3771 139.555 31.5161C140.277 31.655 141.028 31.8218 141.778 32.0163C142.556 32.1831 143.307 32.4054 144.057 32.6555C144.807 32.9056 145.447 33.2391 146.03 33.656C146.614 34.0729 147.059 34.5731 147.42 35.1845C147.781 35.796 147.948 36.5463 147.948 37.4634C147.948 38.7419 147.698 39.7979 147.17 40.6873C146.67 41.5488 145.975 42.2436 145.169 42.7716C144.335 43.2997 143.39 43.661 142.334 43.8833C141.278 44.1056 140.194 44.189 139.082 44.189C137.971 44.189 136.859 44.0778 135.775 43.8555C134.691 43.6332 133.746 43.2441 132.913 42.7161C132.079 42.188 131.384 41.4932 130.856 40.6317C130.328 39.7701 130.022 38.6863 129.967 37.3801H135.025C135.025 37.9637 135.136 38.4639 135.386 38.853L135.331 38.8808Z" fill="black"/>
<path d="M149.782 21.2612V16.8701H155.118V21.2612H149.782ZM155.09 24.2905V43.7168H149.754V24.2905H155.09Z" fill="black"/>
<path d="M176.073 45.1341C175.85 46.1346 175.406 47.0795 174.711 47.9411C174.016 48.8026 172.988 49.5252 171.654 50.1366C170.32 50.748 168.541 51.0259 166.318 51.0259C164.094 51.0259 164.4 50.9148 163.4 50.6646C162.399 50.4145 161.51 50.0532 160.704 49.553C159.898 49.0527 159.203 48.4135 158.675 47.6076C158.147 46.8294 157.841 45.8845 157.758 44.7728H163.066C163.316 45.7733 163.816 46.4681 164.539 46.8572C165.262 47.2463 166.095 47.4408 167.068 47.4408C168.569 47.4408 169.653 46.9962 170.347 46.079C171.042 45.1897 171.376 44.0503 171.348 42.6607V40.1039H171.265C170.681 41.1321 169.875 41.8825 168.791 42.3828C167.735 42.883 166.596 43.1053 165.428 43.1053C164.261 43.1053 162.733 42.8552 161.677 42.3272C160.62 41.8269 159.759 41.1043 159.092 40.215C158.425 39.3257 157.925 38.2974 157.619 37.1024C157.313 35.9073 157.146 34.6567 157.146 33.3227C157.146 31.9887 157.341 30.8493 157.702 29.7098C158.064 28.5426 158.592 27.5143 159.286 26.6249C159.981 25.7356 160.871 25.0408 161.899 24.5128C162.927 23.9847 164.122 23.7346 165.484 23.7346C166.846 23.7346 167.874 23.9847 168.847 24.4572C169.819 24.9297 170.625 25.7356 171.265 26.8751H171.348V24.2905H176.434V42.4661C176.434 43.2443 176.323 44.1336 176.128 45.1341H176.073ZM168.763 38.6587C169.347 38.353 169.819 37.9639 170.181 37.4637C170.57 36.9634 170.848 36.3798 171.014 35.7406C171.209 35.1014 171.292 34.4344 171.292 33.7396C171.292 33.0448 171.209 32.1833 171.07 31.4607C170.931 30.7381 170.681 30.1267 170.32 29.5708C169.958 29.015 169.514 28.5704 168.93 28.2646C168.346 27.9311 167.624 27.7644 166.762 27.7644C165.901 27.7644 165.373 27.9034 164.817 28.2091C164.289 28.5148 163.816 28.9039 163.455 29.4319C163.094 29.9321 162.816 30.5436 162.677 31.2106C162.51 31.8776 162.427 32.5723 162.427 33.2949C162.427 34.0175 162.482 34.6845 162.621 35.3793C162.76 36.0741 163.011 36.6855 163.344 37.2413C163.678 37.7972 164.122 38.2418 164.678 38.6031C165.234 38.9644 165.929 39.1311 166.735 39.1311C167.541 39.1311 168.152 38.9922 168.736 38.6865L168.763 38.6587Z" fill="black"/>
<path d="M184.133 16.8701V26.9862H184.244C184.911 25.8468 185.773 25.0408 186.829 24.5128C187.885 24.0125 188.913 23.7346 189.914 23.7346C191.331 23.7346 192.499 23.9291 193.416 24.3182C194.333 24.7073 195.055 25.2353 195.583 25.9301C196.111 26.6249 196.473 27.4587 196.695 28.4592C196.917 29.4597 197.001 30.5435 197.001 31.7386V43.6889H191.665V32.7113C191.665 31.0994 191.415 29.9043 190.914 29.1262C190.414 28.348 189.525 27.9311 188.246 27.9311C186.968 27.9311 185.745 28.3758 185.078 29.2373C184.439 30.0989 184.105 31.5162 184.105 33.4894V43.6611H178.77V16.8423H184.105L184.133 16.8701Z" fill="black"/>
<path d="M210.09 24.2903V27.8476H206.171V37.4635C206.171 38.3529 206.31 38.9643 206.616 39.27C206.921 39.5757 207.505 39.7146 208.422 39.7146C209.339 39.7146 209.006 39.7146 209.284 39.6869C209.562 39.6869 209.812 39.6313 210.062 39.5757V43.7166C209.617 43.8 209.117 43.8278 208.561 43.8556C208.005 43.8556 207.477 43.8834 206.949 43.8834C206.116 43.8834 205.337 43.8278 204.615 43.7166C203.864 43.6055 203.225 43.3831 202.669 43.0496C202.114 42.7161 201.669 42.2715 201.335 41.6601C201.002 41.0486 200.835 40.2705 200.835 39.2978V27.8476H197.611V24.2903H200.835V18.4541H206.171V24.2903H210.09Z" fill="black"/>
<path d="M216.204 38.8808C216.454 39.2977 216.759 39.6312 217.121 39.9091C217.482 40.187 217.927 40.3538 218.427 40.4927C218.927 40.6317 219.427 40.6873 219.955 40.6873C220.484 40.6873 220.734 40.6317 221.151 40.5483C221.567 40.4649 221.929 40.326 222.29 40.1314C222.623 39.9369 222.901 39.6868 223.124 39.3811C223.346 39.0754 223.457 38.6863 223.457 38.186C223.457 37.3801 222.929 36.7964 221.873 36.3796C220.817 35.9905 219.316 35.5736 217.426 35.1845C216.648 35.0178 215.898 34.7955 215.148 34.5731C214.397 34.323 213.758 34.0173 213.174 33.6282C212.591 33.2391 212.146 32.7389 211.785 32.1553C211.423 31.5716 211.257 30.8491 211.257 29.9875C211.257 28.7369 211.507 27.7086 211.979 26.9027C212.48 26.0967 213.119 25.4575 213.925 25.0128C214.731 24.5404 215.62 24.2347 216.62 24.0401C217.621 23.8456 218.649 23.7622 219.705 23.7622C220.761 23.7622 221.79 23.8734 222.762 24.0679C223.763 24.2625 224.624 24.596 225.403 25.0962C226.181 25.5687 226.82 26.2079 227.348 26.986C227.848 27.7642 228.182 28.7647 228.265 29.9597H223.179C223.096 28.9314 222.707 28.2366 222.012 27.8754C221.317 27.5141 220.484 27.3195 219.539 27.3195C218.594 27.3195 218.899 27.3195 218.566 27.3751C218.205 27.4029 217.899 27.4863 217.621 27.6252C217.343 27.7642 217.093 27.9309 216.898 28.1811C216.704 28.4312 216.593 28.7369 216.593 29.126C216.593 29.5151 216.759 29.9875 217.121 30.2932C217.482 30.5989 217.927 30.8491 218.483 31.0158C219.038 31.2103 219.678 31.3771 220.428 31.5161C221.151 31.655 221.901 31.8218 222.651 32.0163C223.429 32.1831 224.18 32.4054 224.93 32.6555C225.681 32.9056 226.32 33.2391 226.903 33.656C227.487 34.0729 227.932 34.5731 228.293 35.1845C228.654 35.796 228.821 36.5463 228.821 37.4634C228.821 38.7419 228.571 39.7979 228.043 40.6873C227.543 41.5488 226.848 42.2436 226.042 42.7716C225.208 43.2997 224.263 43.661 223.207 43.8833C222.151 44.1056 221.067 44.189 219.955 44.189C218.844 44.189 217.732 44.0778 216.648 43.8555C215.564 43.6332 214.62 43.2441 213.786 42.7161C212.952 42.188 212.257 41.4932 211.729 40.6317C211.201 39.7701 210.895 38.6863 210.84 37.3801H215.898C215.898 37.9637 216.009 38.4639 216.259 38.853L216.204 38.8808Z" fill="black"/>
<path d="M99.0356 58.168H101.037L103.065 66.7834H103.093L105.372 58.168H107.401L109.596 66.7834H109.624L111.709 58.168H113.71L110.597 69.4236H108.596L106.345 60.8082H106.317L104.01 69.4236H101.982L99.0078 58.168H99.0356Z" fill="black"/>
<path d="M117.488 69.6459C116.849 69.6459 116.265 69.5347 115.737 69.3124C115.237 69.0901 114.792 68.8122 114.459 68.4231C114.098 68.034 113.847 67.5893 113.653 67.0613C113.458 66.5332 113.375 65.9496 113.375 65.3382C113.375 64.7268 113.458 64.1432 113.653 63.6151C113.847 63.0871 114.098 62.6424 114.459 62.2533C114.82 61.8643 115.237 61.5863 115.737 61.364C116.238 61.1417 116.821 61.0305 117.488 61.0305C118.155 61.0305 118.711 61.1417 119.239 61.364C119.739 61.5863 120.184 61.8643 120.517 62.2533C120.879 62.6424 121.129 63.0871 121.323 63.6151C121.518 64.1432 121.601 64.7268 121.601 65.3382C121.601 65.9496 121.518 66.5332 121.323 67.0613C121.129 67.5893 120.879 68.034 120.517 68.4231C120.156 68.8122 119.739 69.0901 119.239 69.3124C118.739 69.5347 118.155 69.6459 117.488 69.6459ZM117.488 68.2285C117.877 68.2285 118.239 68.1452 118.516 67.9784C118.822 67.8117 119.044 67.5893 119.239 67.3114C119.434 67.0335 119.573 66.7278 119.656 66.3943C119.739 66.0608 119.795 65.6995 119.795 65.3382C119.795 64.9769 119.739 64.6434 119.656 64.3099C119.573 63.9764 119.434 63.6429 119.239 63.3928C119.044 63.1427 118.822 62.9203 118.516 62.7258C118.211 62.5591 117.877 62.4757 117.488 62.4757C117.099 62.4757 116.738 62.5591 116.46 62.7258C116.154 62.8926 115.932 63.1149 115.737 63.3928C115.543 63.6707 115.404 63.9764 115.32 64.3099C115.237 64.6434 115.181 65.0047 115.181 65.3382C115.181 65.6717 115.237 66.033 115.32 66.3943C115.404 66.7278 115.543 67.0335 115.737 67.3114C115.932 67.5893 116.154 67.8117 116.46 67.9784C116.766 68.1452 117.099 68.2285 117.488 68.2285Z" fill="black"/>
<path d="M122.602 61.2807H124.297V62.8648H124.325C124.38 62.6425 124.491 62.4201 124.63 62.2256C124.769 62.0033 124.964 61.8365 125.186 61.642C125.409 61.4752 125.631 61.3363 125.909 61.2251C126.159 61.1139 126.437 61.0583 126.715 61.0583C126.993 61.0583 127.076 61.0583 127.159 61.0583C127.243 61.0583 127.326 61.0583 127.41 61.0861V62.8092C127.271 62.8092 127.159 62.7814 127.02 62.7536C126.881 62.7258 126.77 62.7536 126.631 62.7536C126.326 62.7536 126.048 62.8092 125.77 62.9482C125.492 63.0871 125.27 63.2539 125.075 63.4762C124.88 63.6985 124.714 64.0043 124.603 64.3378C124.491 64.6712 124.436 65.0881 124.436 65.5328V69.3958H122.629V61.2529L122.602 61.2807Z" fill="black"/>
<path d="M127.855 58.168H129.662V69.4236H127.855V58.168Z" fill="black"/>
<path d="M138.804 69.4235H137.109V68.3118H137.081C136.831 68.7843 136.497 69.1178 136.025 69.3401C135.553 69.5346 135.08 69.6458 134.552 69.6458C134.024 69.6458 133.357 69.5346 132.885 69.3123C132.412 69.09 132.023 68.7843 131.69 68.3952C131.384 68.0061 131.134 67.5336 130.967 67.0056C130.8 66.4776 130.717 65.8939 130.717 65.2825C130.717 64.6711 130.828 63.9207 131.023 63.3649C131.217 62.8369 131.495 62.3922 131.828 62.0309C132.162 61.6696 132.551 61.4195 132.968 61.2527C133.385 61.086 133.829 61.0026 134.274 61.0026C134.719 61.0026 134.774 61.0026 135.052 61.086C135.302 61.1416 135.58 61.1972 135.803 61.3083C136.053 61.4195 136.275 61.5585 136.47 61.6974C136.664 61.8642 136.859 62.0587 136.97 62.281H136.998V58.1123H138.804V69.3679V69.4235ZM132.523 65.4493C132.523 65.7828 132.579 66.1441 132.662 66.4776C132.746 66.8111 132.885 67.1168 133.079 67.3669C133.274 67.617 133.496 67.8394 133.774 68.0061C134.052 68.1729 134.385 68.2562 134.774 68.2562C135.163 68.2562 135.525 68.1729 135.803 68.0061C136.081 67.8394 136.331 67.617 136.525 67.3391C136.72 67.0612 136.859 66.7555 136.942 66.422C137.025 66.0885 137.081 65.7272 137.081 65.3659C137.081 64.4766 136.887 63.754 136.47 63.2537C136.053 62.7535 135.525 62.5034 134.83 62.5034C134.135 62.5034 134.052 62.5867 133.774 62.7535C133.496 62.9202 133.246 63.1426 133.051 63.4205C132.857 63.6984 132.746 64.0041 132.662 64.3654C132.579 64.7267 132.551 65.088 132.551 65.4493H132.523Z" fill="black"/>
<path d="M144.697 58.168H146.67V64.7268C146.67 65.1159 146.67 65.4772 146.726 65.8662C146.754 66.2553 146.865 66.6166 147.032 66.9223C147.199 67.228 147.476 67.4781 147.81 67.7005C148.171 67.895 148.671 68.0062 149.311 68.0062C149.95 68.0062 150.45 67.895 150.811 67.7005C151.173 67.5059 151.423 67.2558 151.59 66.9223C151.756 66.6166 151.867 66.2553 151.895 65.8662C151.923 65.4772 151.951 65.0881 151.951 64.7268V58.168H153.924V65.366C153.924 66.0886 153.813 66.7278 153.591 67.2558C153.368 67.7839 153.063 68.2285 152.646 68.5898C152.229 68.9511 151.756 69.229 151.2 69.3958C150.645 69.5625 150.005 69.6737 149.311 69.6737C148.616 69.6737 147.977 69.5903 147.421 69.3958C146.865 69.2012 146.365 68.9511 145.976 68.5898C145.559 68.2285 145.253 67.7839 145.031 67.2558C144.808 66.7278 144.697 66.0886 144.697 65.366V58.168Z" fill="black"/>
<path d="M155.453 61.2807H157.148V62.4757H157.176C157.454 62.0588 157.815 61.6976 158.26 61.4474C158.705 61.1973 159.177 61.0583 159.733 61.0583C160.622 61.0583 161.317 61.2807 161.845 61.7531C162.373 62.2256 162.623 62.9204 162.623 63.8375V69.4236H160.817V64.31C160.817 63.6708 160.65 63.1983 160.4 62.9204C160.15 62.6425 159.761 62.4757 159.205 62.4757C158.649 62.4757 158.621 62.5313 158.399 62.6425C158.149 62.7536 157.954 62.8926 157.788 63.0871C157.621 63.2817 157.482 63.504 157.399 63.7819C157.315 64.032 157.26 64.31 157.26 64.6157V69.4236H155.453V61.2807Z" fill="black"/>
<path d="M164.012 58.168H165.818V59.8633H164.012V58.168ZM164.012 61.2806H165.818V69.4236H164.012V61.2806Z" fill="black"/>
<path d="M166.431 61.2805H168.376L170.433 67.5336H170.46L172.434 61.2805H174.296L171.377 69.4234H169.349L166.375 61.2805H166.431Z" fill="black"/>
<path d="M176.017 65.8107C176.017 66.1165 176.073 66.4222 176.156 66.7279C176.24 67.0336 176.379 67.2837 176.545 67.506C176.712 67.7284 176.962 67.8951 177.212 68.0341C177.49 68.173 177.824 68.2286 178.185 68.2286C178.546 68.2286 179.13 68.1174 179.464 67.8951C179.797 67.6728 180.019 67.3393 180.186 66.8668H181.881C181.798 67.3115 181.631 67.7006 181.381 68.0619C181.131 68.4232 180.881 68.7011 180.547 68.9234C180.214 69.1735 179.853 69.3403 179.464 69.4514C179.047 69.5626 178.63 69.646 178.185 69.646C177.546 69.646 176.99 69.5348 176.49 69.3403C175.99 69.1179 175.573 68.84 175.239 68.4509C174.906 68.0619 174.628 67.6172 174.461 67.0892C174.294 66.5611 174.211 65.9775 174.211 65.3661C174.211 64.7547 174.294 64.2266 174.489 63.7264C174.683 63.1983 174.934 62.7537 175.267 62.3646C175.601 61.9755 176.017 61.6698 176.518 61.4197C176.99 61.1974 177.546 61.0862 178.157 61.0862C178.769 61.0862 179.38 61.2251 179.88 61.4753C180.381 61.7254 180.825 62.0867 181.159 62.5313C181.492 62.976 181.742 63.4763 181.881 64.0599C182.02 64.6435 182.076 65.2271 181.993 65.8385H176.017V65.8107ZM180.186 64.6435C180.186 64.3656 180.103 64.0877 179.992 63.8376C179.88 63.5874 179.741 63.3373 179.575 63.1428C179.408 62.9482 179.186 62.7815 178.936 62.6703C178.685 62.5591 178.407 62.4758 178.102 62.4758C177.796 62.4758 177.49 62.5313 177.24 62.6425C176.99 62.7537 176.768 62.8926 176.573 63.0872C176.379 63.2817 176.24 63.5041 176.129 63.782C176.017 64.0321 175.962 64.3378 175.934 64.6435H180.131H180.186Z" fill="black"/>
<path d="M182.938 61.2807H184.633V62.8648H184.661C184.716 62.6425 184.827 62.4201 184.966 62.2256C185.105 62.0033 185.3 61.8365 185.522 61.642C185.744 61.4752 185.967 61.3363 186.245 61.2251C186.495 61.1139 186.773 61.0583 187.051 61.0583C187.329 61.0583 187.412 61.0583 187.495 61.0583C187.579 61.0583 187.662 61.0583 187.745 61.0861V62.8092C187.606 62.8092 187.495 62.7814 187.356 62.7536C187.217 62.7258 187.106 62.7536 186.967 62.7536C186.662 62.7536 186.384 62.8092 186.106 62.9482C185.828 63.0871 185.605 63.2539 185.411 63.4762C185.216 63.6985 185.05 64.0043 184.938 64.3378C184.827 64.6712 184.772 65.0881 184.772 65.5328V69.3958H182.965V61.2529L182.938 61.2807Z" fill="black"/>
<path d="M189.692 66.8112C189.747 67.3393 189.942 67.7006 190.303 67.9229C190.665 68.1452 191.054 68.2286 191.554 68.2286C192.054 68.2286 191.915 68.2286 192.137 68.2008C192.36 68.2008 192.554 68.1174 192.749 68.0619C192.943 67.9785 193.082 67.8673 193.221 67.7284C193.333 67.5894 193.388 67.3949 193.388 67.1725C193.388 66.9502 193.305 66.7557 193.138 66.6167C192.971 66.4778 192.777 66.3388 192.527 66.2554C192.276 66.172 191.999 66.0887 191.693 66.0331C191.387 65.9775 191.054 65.8941 190.72 65.8385C190.387 65.7552 190.053 65.6718 189.747 65.5606C189.442 65.4495 189.164 65.3105 188.914 65.1438C188.664 64.977 188.469 64.7269 188.33 64.449C188.191 64.171 188.108 63.8376 188.108 63.4207C188.108 63.0038 188.219 62.6147 188.441 62.309C188.664 62.0033 188.941 61.781 189.247 61.5864C189.581 61.3919 189.942 61.2807 190.359 61.1974C190.776 61.114 191.137 61.0862 191.526 61.0862C191.915 61.0862 192.36 61.1418 192.721 61.2251C193.11 61.3085 193.444 61.4475 193.749 61.6698C194.055 61.8643 194.305 62.1423 194.528 62.448C194.722 62.7815 194.861 63.1428 194.917 63.6152H193.055C192.971 63.1983 192.777 62.8926 192.471 62.7537C192.165 62.6147 191.804 62.5313 191.415 62.5313C191.026 62.5313 191.137 62.5313 190.97 62.5591C190.803 62.5591 190.637 62.6147 190.47 62.6703C190.303 62.7259 190.192 62.8093 190.081 62.9204C189.97 63.0316 189.914 63.1706 189.914 63.3651C189.914 63.5596 189.998 63.7542 190.136 63.8931C190.275 64.0321 190.498 64.1433 190.748 64.2266C190.998 64.31 191.276 64.3934 191.582 64.449C191.887 64.5045 192.221 64.5879 192.554 64.6435C192.888 64.7269 193.194 64.8103 193.527 64.9214C193.833 65.0326 194.111 65.1715 194.361 65.3383C194.611 65.505 194.805 65.7552 194.972 66.0053C195.111 66.2832 195.195 66.6167 195.195 67.0058C195.195 67.3949 195.083 67.8951 194.861 68.2286C194.639 68.5621 194.361 68.84 194 69.0346C193.638 69.2291 193.249 69.3959 192.832 69.4792C192.415 69.5626 191.971 69.6182 191.554 69.6182C191.137 69.6182 190.553 69.5626 190.136 69.4514C189.692 69.3403 189.331 69.1735 188.997 68.9234C188.664 68.7011 188.413 68.3954 188.247 68.0341C188.052 67.6728 187.969 67.2559 187.969 66.7835H189.775L189.692 66.8112Z" fill="black"/>
<path d="M196.084 58.168H197.89V59.8633H196.084V58.168ZM196.084 61.2806H197.89V69.4236H196.084V61.2806Z" fill="black"/>
<path d="M198.529 61.2806H199.891V58.835H201.698V61.2806H203.309V62.6146H201.698V66.9501C201.698 67.1446 201.698 67.3114 201.698 67.4503C201.698 67.5893 201.753 67.7005 201.809 67.7838C201.864 67.8672 201.948 67.9506 202.059 68.0062C202.17 68.0618 202.337 68.0895 202.531 68.0895C202.726 68.0895 202.781 68.0895 202.92 68.0895C203.059 68.0895 203.17 68.0895 203.309 68.034V69.4235C203.115 69.4235 202.92 69.4791 202.726 69.4791C202.531 69.4791 202.337 69.5069 202.142 69.5069C201.67 69.5069 201.281 69.4513 201.003 69.368C200.725 69.2846 200.475 69.1456 200.336 68.9789C200.169 68.8121 200.058 68.5898 200.002 68.3119C199.947 68.0618 199.919 67.7561 199.891 67.4226V62.6146H198.529V61.2806Z" fill="black"/>
<path d="M203.587 61.2805H205.56L207.7 67.3669H207.728L209.785 61.2805H211.647L208.479 69.8681C208.34 70.2294 208.201 70.5907 208.034 70.9242C207.895 71.2577 207.728 71.5634 207.506 71.8135C207.311 72.0636 207.033 72.286 206.728 72.4249C206.422 72.5639 206.033 72.6473 205.56 72.6473C205.088 72.6473 204.727 72.6195 204.31 72.5639V71.0632C204.449 71.0632 204.588 71.1187 204.727 71.1465C204.866 71.1465 205.005 71.1743 205.144 71.1743C205.366 71.1743 205.533 71.1743 205.672 71.0909C205.811 71.0354 205.922 70.952 206.005 70.8686C206.089 70.7574 206.172 70.6463 206.227 70.5073C206.283 70.3684 206.339 70.2016 206.394 70.0349L206.589 69.3957L203.504 61.2805H203.587Z" fill="black"/>
<path d="M216.732 58.168H222.096C223.347 58.168 224.264 58.4459 224.875 58.9739C225.487 59.502 225.792 60.2523 225.792 61.225C225.792 62.1977 225.709 62.1978 225.542 62.559C225.376 62.9203 225.209 63.1982 224.987 63.4206C224.764 63.6429 224.57 63.7819 224.375 63.893C224.181 63.9764 224.014 64.0598 223.93 64.0876C224.097 64.1432 224.292 64.1987 224.486 64.2821C224.681 64.3655 224.875 64.5045 225.042 64.6712C225.209 64.8657 225.348 65.0881 225.459 65.3938C225.57 65.6995 225.626 66.0608 225.626 66.5054C225.626 67.1724 225.681 67.7561 225.765 68.3119C225.876 68.8399 226.015 69.229 226.237 69.4791H224.125C223.986 69.229 223.903 68.9789 223.875 68.6732C223.875 68.3675 223.847 68.0896 223.847 67.8116C223.847 67.2836 223.819 66.8667 223.764 66.4777C223.708 66.0886 223.597 65.7829 223.43 65.5605C223.263 65.3104 223.041 65.1437 222.735 65.0047C222.457 64.8935 222.068 64.8379 221.624 64.8379H218.733V69.4791H216.76V58.2236L216.732 58.168ZM218.706 63.3094H221.929C222.569 63.3094 223.041 63.1705 223.375 62.8647C223.708 62.559 223.875 62.1144 223.875 61.5307C223.875 60.9471 223.819 60.8915 223.708 60.6692C223.597 60.4469 223.458 60.2801 223.263 60.1412C223.069 60.0022 222.874 59.9188 222.624 59.891C222.374 59.8355 222.152 59.8355 221.902 59.8355H218.706V63.3372V63.3094Z" fill="black"/>
<path d="M233.935 67.6172C233.935 67.8395 233.963 68.0062 234.019 68.0896C234.074 68.173 234.185 68.2286 234.352 68.2286H234.547C234.63 68.2286 234.713 68.2286 234.797 68.2008V69.4514C234.741 69.4514 234.658 69.507 234.547 69.5348C234.435 69.5348 234.352 69.5904 234.241 69.6181C234.13 69.6181 234.019 69.6459 233.935 69.6737C233.824 69.6737 233.741 69.6737 233.657 69.6737C233.296 69.6737 232.99 69.5904 232.74 69.4514C232.49 69.3124 232.351 69.0345 232.268 68.6732C231.906 69.0067 231.462 69.2846 230.962 69.4236C230.434 69.5904 229.933 69.6737 229.461 69.6737C228.988 69.6737 228.738 69.6182 228.405 69.5348C228.071 69.4236 227.766 69.2847 227.515 69.0901C227.265 68.8956 227.043 68.6454 226.904 68.3397C226.765 68.034 226.682 67.7005 226.682 67.2837C226.682 66.8668 226.765 66.3665 226.96 66.0608C227.154 65.7551 227.376 65.505 227.682 65.3105C227.988 65.1159 228.321 65.0048 228.683 64.9214C229.044 64.838 229.433 64.7824 229.822 64.7268C230.156 64.6712 230.461 64.6157 230.739 64.5879C231.045 64.5879 231.295 64.5045 231.517 64.4489C231.74 64.3933 231.934 64.2822 232.045 64.171C232.184 64.032 232.24 63.8375 232.24 63.5874C232.24 63.3373 232.184 63.1705 232.073 63.0315C231.962 62.8926 231.823 62.7814 231.656 62.6981C231.49 62.6147 231.323 62.5591 231.101 62.5313C230.906 62.5313 230.711 62.5035 230.545 62.5035C230.044 62.5035 229.628 62.6147 229.294 62.8092C228.961 63.0315 228.794 63.3373 228.738 63.7819H226.932C226.96 63.2539 227.099 62.8092 227.321 62.4757C227.543 62.1422 227.821 61.8643 228.155 61.642C228.488 61.4196 228.877 61.2807 229.322 61.1973C229.739 61.1139 230.183 61.0583 230.656 61.0583C231.128 61.0583 231.462 61.1139 231.851 61.1973C232.24 61.2807 232.601 61.4196 232.907 61.6142C233.213 61.8087 233.463 62.0588 233.657 62.3368C233.852 62.6425 233.935 63.0038 233.935 63.4206V67.6172ZM232.157 65.3382C231.879 65.505 231.545 65.6162 231.156 65.6717C230.767 65.6995 230.35 65.7551 229.961 65.8385C229.767 65.8663 229.6 65.9219 229.405 65.9775C229.238 66.033 229.072 66.1164 228.933 66.2276C228.794 66.3387 228.683 66.4499 228.599 66.6167C228.516 66.7834 228.488 66.9779 228.488 67.2003C228.488 67.4226 228.544 67.5616 228.655 67.7005C228.766 67.8395 228.905 67.9507 229.072 68.034C229.238 68.1174 229.405 68.173 229.6 68.2008C229.794 68.2286 229.961 68.2564 230.128 68.2564C230.295 68.2564 230.545 68.2564 230.767 68.173C230.989 68.1174 231.212 68.034 231.434 67.8951C231.629 67.7561 231.823 67.6172 231.934 67.4226C232.073 67.2281 232.129 66.9779 232.129 66.7V65.366L232.157 65.3382Z" fill="black"/>
<path d="M235.492 61.2807H237.187V62.4757H237.215C237.493 62.0588 237.854 61.6976 238.299 61.4474C238.744 61.1973 239.216 61.0583 239.772 61.0583C240.661 61.0583 241.356 61.2807 241.884 61.7531C242.412 62.2256 242.662 62.9204 242.662 63.8375V69.4236H240.856V64.31C240.856 63.6708 240.689 63.1983 240.439 62.9204C240.189 62.6425 239.8 62.4757 239.244 62.4757C238.688 62.4757 238.66 62.5313 238.438 62.6425C238.188 62.7536 237.993 62.8926 237.827 63.0871C237.66 63.2817 237.521 63.504 237.438 63.7819C237.354 64.032 237.299 64.31 237.299 64.6157V69.4236H235.492V61.2807Z" fill="black"/>
<path d="M244.051 58.168H245.858V64.56L249.109 61.2806H251.305L248.192 64.2821L251.611 69.4236H249.415L246.914 65.4772L245.83 66.5054V69.4236H244.023V58.168H244.051Z" fill="black"/>
<path d="M252.139 58.168H253.945V59.8633H252.139V58.168ZM252.139 61.2806H253.945V69.4236H252.139V61.2806Z" fill="black"/>
<path d="M255.363 61.2807H257.059V62.4757H257.086C257.364 62.0588 257.726 61.6976 258.17 61.4474C258.615 61.1973 259.087 61.0583 259.643 61.0583C260.533 61.0583 261.227 61.2807 261.755 61.7531C262.283 62.2256 262.534 62.9204 262.534 63.8375V69.4236H260.727V64.31C260.727 63.6708 260.56 63.1983 260.31 62.9204C260.06 62.6425 259.671 62.4757 259.115 62.4757C258.559 62.4757 258.532 62.5313 258.309 62.6425C258.059 62.7536 257.865 62.8926 257.698 63.0871C257.531 63.2817 257.392 63.504 257.309 63.7819C257.225 64.032 257.17 64.31 257.17 64.6157V69.4236H255.363V61.2807Z" fill="black"/>
<path d="M271.398 69.0067C271.398 70.2296 271.064 71.1467 270.369 71.7581C269.675 72.3695 268.702 72.6752 267.396 72.6752C266.089 72.6752 266.562 72.6196 266.145 72.5363C265.728 72.4529 265.339 72.3139 265.006 72.1194C264.672 71.9248 264.366 71.6469 264.144 71.3412C263.922 71.0077 263.783 70.6186 263.727 70.1462H265.534C265.589 70.3963 265.673 70.5909 265.812 70.7576C265.95 70.9244 266.089 71.0355 266.256 71.1189C266.423 71.2023 266.617 71.2578 266.84 71.2856C267.062 71.2856 267.257 71.3134 267.507 71.3134C268.229 71.3134 268.757 71.1467 269.091 70.7854C269.424 70.4241 269.591 69.9239 269.591 69.2291V67.9784H269.563C269.313 68.4231 268.98 68.7844 268.535 69.0345C268.09 69.2846 267.618 69.4236 267.118 69.4236C266.617 69.4236 265.923 69.3124 265.45 69.0901C265.006 68.8678 264.616 68.5621 264.311 68.173C264.005 67.7839 263.783 67.3114 263.644 66.8112C263.505 66.2832 263.449 65.7551 263.449 65.1437C263.449 64.5323 263.533 64.0876 263.699 63.5874C263.866 63.0871 264.116 62.6703 264.422 62.2812C264.728 61.8921 265.117 61.6142 265.589 61.3918C266.034 61.1695 266.562 61.0583 267.146 61.0583C267.729 61.0583 268.146 61.1695 268.563 61.3918C268.98 61.6142 269.313 61.9477 269.563 62.4201H269.591V61.3085H271.398V69.0345V69.0067ZM267.423 68.0062C267.813 68.0062 268.174 67.9229 268.452 67.7561C268.73 67.5894 268.952 67.367 269.119 67.1169C269.285 66.839 269.424 66.5333 269.508 66.1998C269.591 65.8663 269.619 65.505 269.619 65.1715C269.619 64.838 269.563 64.4767 269.48 64.171C269.397 63.8375 269.258 63.5596 269.091 63.3095C268.924 63.0593 268.702 62.8648 268.424 62.6981C268.146 62.5591 267.813 62.4757 267.423 62.4757C267.034 62.4757 266.701 62.5591 266.423 62.7258C266.145 62.8926 265.923 63.1149 265.756 63.3928C265.589 63.6708 265.478 63.9765 265.395 64.31C265.311 64.6435 265.283 64.977 265.283 65.3382C265.283 65.6995 265.339 66.0052 265.422 66.311C265.506 66.6445 265.645 66.9224 265.812 67.1725C265.978 67.4226 266.201 67.6172 266.479 67.7839C266.756 67.9507 267.062 68.034 267.451 68.034L267.423 68.0062Z" fill="black"/>
<path d="M274.151 66.8112C274.206 67.3393 274.401 67.7006 274.762 67.9229C275.124 68.1452 275.513 68.2286 276.013 68.2286C276.513 68.2286 276.374 68.2286 276.596 68.2008C276.819 68.2008 277.013 68.1174 277.208 68.0619C277.402 67.9785 277.541 67.8673 277.68 67.7284C277.792 67.5894 277.847 67.3949 277.847 67.1725C277.847 66.9502 277.764 66.7557 277.597 66.6167C277.43 66.4778 277.236 66.3388 276.986 66.2554C276.735 66.172 276.458 66.0887 276.152 66.0331C275.846 65.9775 275.513 65.8941 275.179 65.8385C274.846 65.7552 274.512 65.6718 274.206 65.5606C273.901 65.4495 273.623 65.3105 273.373 65.1438C273.123 64.977 272.928 64.7269 272.789 64.449C272.65 64.171 272.567 63.8376 272.567 63.4207C272.567 63.0038 272.678 62.6147 272.9 62.309C273.123 62.0033 273.4 61.781 273.706 61.5864C274.04 61.3919 274.401 61.2807 274.818 61.1974C275.235 61.114 275.596 61.0862 275.985 61.0862C276.374 61.0862 276.819 61.1418 277.18 61.2251C277.569 61.3085 277.903 61.4475 278.208 61.6698C278.514 61.8643 278.764 62.1423 278.987 62.448C279.181 62.7815 279.32 63.1428 279.376 63.6152H277.514C277.43 63.1983 277.236 62.8926 276.93 62.7537C276.624 62.6147 276.263 62.5313 275.874 62.5313C275.485 62.5313 275.596 62.5313 275.429 62.5591C275.262 62.5591 275.096 62.6147 274.929 62.6703C274.762 62.7259 274.651 62.8093 274.54 62.9204C274.429 63.0316 274.373 63.1706 274.373 63.3651C274.373 63.5596 274.457 63.7542 274.595 63.8931C274.734 64.0321 274.957 64.1433 275.207 64.2266C275.457 64.31 275.735 64.3934 276.041 64.449C276.346 64.5045 276.68 64.5879 277.013 64.6435C277.347 64.7269 277.653 64.8103 277.986 64.9214C278.292 65.0326 278.57 65.1715 278.82 65.3383C279.07 65.505 279.264 65.7552 279.431 66.0053C279.57 66.2832 279.654 66.6167 279.654 67.0058C279.654 67.3949 279.542 67.8951 279.32 68.2286C279.098 68.5621 278.82 68.84 278.458 69.0346C278.097 69.2291 277.708 69.3959 277.291 69.4792C276.874 69.5626 276.43 69.6182 276.013 69.6182C275.596 69.6182 275.012 69.5626 274.595 69.4514C274.151 69.3403 273.79 69.1735 273.456 68.9234C273.123 68.7011 272.872 68.3954 272.706 68.0341C272.511 67.6728 272.428 67.2559 272.428 66.7835H274.234L274.151 66.8112Z" fill="black"/>
</g>
<defs>
<linearGradient id="paint0_linear_5105_29954" x1="10.2424" y1="28.681" x2="76.7198" y2="56.2224" gradientUnits="userSpaceOnUse">
<stop stop-color="#FE4537"/>
<stop offset="0.5" stop-color="#DE1B7C"/>
<stop offset="1" stop-color="#4352FF"/>
</linearGradient>
<clipPath id="clip0_5105_29954">
<rect width="279.861" height="86.1538" fill="white"/>
</clipPath>
</defs>
</svg>
